HIERARCHY
ROOT newVegas:Hips
{
	OFFSET 0.000000 96.479958 0.000000
	CHANNELS 6 Xposition Yposition Zposition Xrotation Yrotation Zrotation
	JOINT newVegas:Pelvis
	{
		OFFSET 0.000000 0.000000 0.000000
		CHANNELS 3 Xrotation Yrotation Zrotation
		JOINT newVegas:LeftUpLeg
		{
			OFFSET 18.735201 -5.666702 -4.541200
			CHANNELS 3 Xrotation Yrotation Zrotation
			JOINT newVegas:LeftLeg
			{
				OFFSET -0.021200 -31.938179 0.493100
				CHANNELS 3 Xrotation Yrotation Zrotation
				JOINT newVegas:LeftFoot
				{
					OFFSET 0.021200 -31.938179 -4.336299
					CHANNELS 3 Xrotation Yrotation Zrotation
					JOINT newVegas:LeftToeBase
					{
						OFFSET 0.943001 -26.722000 15.023500
						CHANNELS 3 Xrotation Yrotation Zrotation
						End Site
						{
							OFFSET 0.000000 30.670183 0.000000
						}
					}
				}
				JOINT newVegas:Left_PantLeg
				{
					OFFSET 0.663870 -9.044666 -1.108900
					CHANNELS 3 Xrotation Yrotation Zrotation
					End Site
					{
						OFFSET 1.415995 20.635357 0.000000
					}
				}
			}
		}
		JOINT newVegas:RightUpLeg
		{
			OFFSET -18.735201 -5.666702 -4.541200
			CHANNELS 3 Xrotation Yrotation Zrotation
			JOINT newVegas:RightLeg
			{
				OFFSET 0.018946 -31.938133 0.493100
				CHANNELS 3 Xrotation Yrotation Zrotation
				JOINT newVegas:RightFoot
				{
					OFFSET -0.018946 -31.938126 -4.336299
					CHANNELS 3 Xrotation Yrotation Zrotation
					JOINT newVegas:RightToeBase
					{
						OFFSET -0.943001 -26.722004 15.023500
						CHANNELS 3 Xrotation Yrotation Zrotation
						End Site
						{
							OFFSET 0.000000 30.670187 0.000000
						}
					}
				}
				JOINT newVegas:Right_PantLeg
				{
					OFFSET -0.661674 -9.044716 -1.108900
					CHANNELS 3 Xrotation Yrotation Zrotation
					End Site
					{
						OFFSET -1.415958 20.635269 0.000000
					}
				}
			}
		}
	}
	JOINT newVegas:Spine
	{
		OFFSET 0.000000 10.199997 -0.299500
		CHANNELS 3 Xrotation Yrotation Zrotation
		JOINT newVegas:Spine1
		{
			OFFSET 0.000000 11.900002 -1.516600
			CHANNELS 3 Xrotation Yrotation Zrotation
			JOINT newVegas:Spine2
			{
				OFFSET 0.000000 13.600006 -2.842500
				CHANNELS 3 Xrotation Yrotation Zrotation
				JOINT newVegas:Neck
				{
					OFFSET 0.000000 9.624100 -2.890100
					CHANNELS 3 Xrotation Yrotation Zrotation
					JOINT newVegas:Head
					{
						OFFSET 0.000000 14.068802 -1.351900
						CHANNELS 3 Xrotation Yrotation Zrotation
						JOINT newVegas:Hair_Back
						{
							OFFSET 0.000000 3.231903 -17.524799
							CHANNELS 3 Xrotation Yrotation Zrotation
							End Site
							{
								OFFSET 0.000000 19.849884 0.000000
							}
						}
						JOINT newVegas:Hair_Front
						{
							OFFSET 0.000000 31.260406 4.573800
							CHANNELS 3 Xrotation Yrotation Zrotation
							JOINT newVegas:Hair_Front1
							{
								OFFSET 0.000000 2.284103 11.993300
								CHANNELS 3 Xrotation Yrotation Zrotation
								JOINT newVegas:Hair_Front2
								{
									OFFSET 0.000000 2.284103 11.993300
									CHANNELS 3 Xrotation Yrotation Zrotation
									End Site
									{
										OFFSET 0.000000 12.208862 0.000000
									}
								}
							}
						}
						JOINT newVegas:Jowel
						{
							OFFSET 0.000000 -7.458206 6.864100
							CHANNELS 3 Xrotation Yrotation Zrotation
							End Site
							{
								OFFSET 0.000000 19.849884 0.000000
							}
						}
					}
				}
				JOINT newVegas:LeftShoulder
				{
					OFFSET 15.263000 10.923401 -0.547700
					CHANNELS 3 Xrotation Yrotation Zrotation
					JOINT newVegas:LeftArm
					{
						OFFSET 25.438599 -2.830597 -13.032500
						CHANNELS 3 Xrotation Yrotation Zrotation
						JOINT newVegas:LeftForeArm
						{
							OFFSET 29.960503 0.000000 0.000000
							CHANNELS 3 Xrotation Yrotation Zrotation
							JOINT newVegas:LeftHand
							{
								OFFSET 27.849251 0.000000 0.000000
								CHANNELS 3 Xrotation Yrotation Zrotation
								JOINT newVegas:LeftHandThumb1
								{
									OFFSET 4.487587 -3.305161 6.305391
									CHANNELS 3 Xrotation Yrotation Zrotation
									JOINT newVegas:LeftHandThumb2
									{
										OFFSET 5.480453 -3.164139 3.164143
										CHANNELS 3 Xrotation Yrotation Zrotation
										JOINT newVegas:LeftHandThumb3
										{
											OFFSET 5.159721 -2.978973 2.978967
											CHANNELS 3 Xrotation Yrotation Zrotation
											End Site
											{
												OFFSET 2.494507 5.926697 1.738678
											}
										}
									}
								}
								JOINT newVegas:LeftHandIndex1
								{
									OFFSET 18.578728 -0.527832 5.208049
									CHANNELS 3 Xrotation Yrotation Zrotation
									JOINT newVegas:LeftHandIndex2
									{
										OFFSET 3.192009 0.000000 0.000000
										CHANNELS 3 Xrotation Yrotation Zrotation
										JOINT newVegas:LeftHandIndex3
										{
											OFFSET 3.835129 0.000000 0.000000
											CHANNELS 3 Xrotation Yrotation Zrotation
											End Site
											{
												OFFSET -0.034599 3.816971 0.371180
											}
										}
									}
								}
								JOINT newVegas:LeftHandMiddle1
								{
									OFFSET 18.476105 0.000000 0.000000
									CHANNELS 3 Xrotation Yrotation Zrotation
									JOINT newVegas:LeftHandMiddle2
									{
										OFFSET 3.324875 0.000000 0.000000
										CHANNELS 3 Xrotation Yrotation Zrotation
										JOINT newVegas:LeftHandMiddle3
										{
											OFFSET 4.596550 0.000000 0.000000
											CHANNELS 3 Xrotation Yrotation Zrotation
											End Site
											{
												OFFSET 0.057701 4.578827 0.399218
											}
										}
									}
								}
								JOINT newVegas:LeftHandRing1
								{
									OFFSET 17.732719 0.121887 -4.201567
									CHANNELS 3 Xrotation Yrotation Zrotation
									JOINT newVegas:LeftHandRing2
									{
										OFFSET 2.733170 0.000000 0.000000
										CHANNELS 3 Xrotation Yrotation Zrotation
										JOINT newVegas:LeftHandRing3
										{
											OFFSET 3.178268 0.000000 0.000000
											CHANNELS 3 Xrotation Yrotation Zrotation
											End Site
											{
												OFFSET 0.119102 3.170624 0.185394
											}
										}
									}
								}
								JOINT newVegas:LeftHandPinky1
								{
									OFFSET 15.989624 -0.606689 -7.535461
									CHANNELS 3 Xrotation Yrotation Zrotation
									JOINT newVegas:LeftHandPinky2
									{
										OFFSET 2.538986 0.000000 0.000000
										CHANNELS 3 Xrotation Yrotation Zrotation
										JOINT newVegas:LeftHandPinky3
										{
											OFFSET 2.593102 0.000000 0.000000
											CHANNELS 3 Xrotation Yrotation Zrotation
											End Site
											{
												OFFSET -0.150902 2.584198 0.152708
											}
										}
									}
								}
							}
							JOINT newVegas:Left_Sleeve
							{
								OFFSET 0.267448 -0.649796 0.577675
								CHANNELS 3 Xrotation Yrotation Zrotation
								End Site
								{
									OFFSET 0.000000 15.991241 0.000000
								}
							}
							JOINT newVegas:Left_CapeC
							{
								OFFSET 15.715958 -8.608795 -6.935905
								CHANNELS 3 Xrotation Yrotation Zrotation
								JOINT newVegas:Left_CapeC1
								{
									OFFSET 0.000000 -8.688499 0.000000
									CHANNELS 3 Xrotation Yrotation Zrotation
									End Site
									{
										OFFSET 0.000000 8.688499 0.000000
									}
								}
							}
						}
						JOINT newVegas:Left_CapeB
						{
							OFFSET 26.118385 -8.608795 -7.079235
							CHANNELS 3 Xrotation Yrotation Zrotation
							JOINT newVegas:Left_CapeB1
							{
								OFFSET 0.000000 -8.688499 0.000000
								CHANNELS 3 Xrotation Yrotation Zrotation
								End Site
								{
									OFFSET 0.000000 8.688499 0.000000
								}
							}
						}
						JOINT newVegas:Left_CapeA
						{
							OFFSET 5.115639 -8.608795 -10.395809
							CHANNELS 3 Xrotation Yrotation Zrotation
							JOINT newVegas:Left_CapeA1
							{
								OFFSET 0.000000 -8.688499 0.000000
								CHANNELS 3 Xrotation Yrotation Zrotation
								End Site
								{
									OFFSET 0.000000 8.688499 0.000000
								}
							}
						}
					}
				}
				JOINT newVegas:RightShoulder
				{
					OFFSET -15.263000 10.923401 -0.547700
					CHANNELS 3 Xrotation Yrotation Zrotation
					JOINT newVegas:RightArm
					{
						OFFSET -25.438599 -2.830597 -13.032500
						CHANNELS 3 Xrotation Yrotation Zrotation
						JOINT newVegas:RightForeArm
						{
							OFFSET -29.960503 0.000000 0.000000
							CHANNELS 3 Xrotation Yrotation Zrotation
							JOINT newVegas:RightHand
							{
								OFFSET -27.849251 0.000000 0.000000
								CHANNELS 3 Xrotation Yrotation Zrotation
								JOINT newVegas:RightHandThumb1
								{
									OFFSET -4.487587 -3.305161 6.305391
									CHANNELS 3 Xrotation Yrotation Zrotation
									JOINT newVegas:RightHandThumb2
									{
										OFFSET -5.480453 -3.164139 3.164143
										CHANNELS 3 Xrotation Yrotation Zrotation
										JOINT newVegas:RightHandThumb3
										{
											OFFSET -5.159721 -2.978973 2.978967
											CHANNELS 3 Xrotation Yrotation Zrotation
											End Site
											{
												OFFSET -2.494507 5.926697 1.738678
											}
										}
									}
								}
								JOINT newVegas:RightHandIndex1
								{
									OFFSET -18.578728 -0.527832 5.208049
									CHANNELS 3 Xrotation Yrotation Zrotation
									JOINT newVegas:RightHandIndex2
									{
										OFFSET -3.192009 0.000000 0.000000
										CHANNELS 3 Xrotation Yrotation Zrotation
										JOINT newVegas:RightHandIndex3
										{
											OFFSET -3.835129 0.000000 0.000000
											CHANNELS 3 Xrotation Yrotation Zrotation
											End Site
											{
												OFFSET 0.034599 3.816971 0.371180
											}
										}
									}
								}
								JOINT newVegas:RightHandMiddle1
								{
									OFFSET -18.476105 0.000000 0.000000
									CHANNELS 3 Xrotation Yrotation Zrotation
									JOINT newVegas:RightHandMiddle2
									{
										OFFSET -3.324875 0.000000 0.000000
										CHANNELS 3 Xrotation Yrotation Zrotation
										JOINT newVegas:RightHandMiddle3
										{
											OFFSET -4.596550 0.000000 0.000000
											CHANNELS 3 Xrotation Yrotation Zrotation
											End Site
											{
												OFFSET -0.057701 4.578827 0.399218
											}
										}
									}
								}
								JOINT newVegas:RightHandRing1
								{
									OFFSET -17.732719 0.121887 -4.201567
									CHANNELS 3 Xrotation Yrotation Zrotation
									JOINT newVegas:RightHandRing2
									{
										OFFSET -2.733170 0.000000 0.000000
										CHANNELS 3 Xrotation Yrotation Zrotation
										JOINT newVegas:RightHandRing3
										{
											OFFSET -3.178268 0.000000 0.000000
											CHANNELS 3 Xrotation Yrotation Zrotation
											End Site
											{
												OFFSET -0.119102 3.170624 0.185394
											}
										}
									}
								}
								JOINT newVegas:RightHandPinky1
								{
									OFFSET -15.989624 -0.606689 -7.535461
									CHANNELS 3 Xrotation Yrotation Zrotation
									JOINT newVegas:RightHandPinky2
									{
										OFFSET -2.538986 0.000000 0.000000
										CHANNELS 3 Xrotation Yrotation Zrotation
										JOINT newVegas:RightHandPinky3
										{
											OFFSET -2.593102 0.000000 0.000000
											CHANNELS 3 Xrotation Yrotation Zrotation
											End Site
											{
												OFFSET 0.150902 2.584198 0.152708
											}
										}
									}
								}
							}
							JOINT newVegas:Right_CapeC
							{
								OFFSET -15.715958 -8.608795 -6.935905
								CHANNELS 3 Xrotation Yrotation Zrotation
								JOINT newVegas:Right_CapeC1
								{
									OFFSET 0.000000 -8.688499 0.000000
									CHANNELS 3 Xrotation Yrotation Zrotation
									End Site
									{
										OFFSET 0.000000 8.688499 0.000000
									}
								}
							}
							JOINT newVegas:Right_Sleeve
							{
								OFFSET -0.267448 -0.649994 0.577675
								CHANNELS 3 Xrotation Yrotation Zrotation
								End Site
								{
									OFFSET 0.000000 15.991302 0.000000
								}
							}
						}
						JOINT newVegas:Right_CapeA
						{
							OFFSET -5.115540 -8.608795 -10.395824
							CHANNELS 3 Xrotation Yrotation Zrotation
							JOINT newVegas:Right_CapeA1
							{
								OFFSET 0.000000 -8.688499 0.000000
								CHANNELS 3 Xrotation Yrotation Zrotation
								End Site
								{
									OFFSET 0.000000 8.688499 0.000000
								}
							}
						}
						JOINT newVegas:Right_CapeB
						{
							OFFSET -26.118187 -8.608795 -7.079266
							CHANNELS 3 Xrotation Yrotation Zrotation
							JOINT newVegas:Right_CapeB1
							{
								OFFSET 0.000000 -8.688499 0.000000
								CHANNELS 3 Xrotation Yrotation Zrotation
								End Site
								{
									OFFSET 0.000000 8.688499 0.000000
								}
							}
						}
					}
				}
				JOINT newVegas:Left_Collar
				{
					OFFSET 18.625099 8.655502 8.828100
					CHANNELS 3 Xrotation Yrotation Zrotation
					JOINT newVegas:Left_Collar1
					{
						OFFSET 14.783401 10.540405 -1.259500
						CHANNELS 3 Xrotation Yrotation Zrotation
						End Site
						{
							OFFSET 0.000000 18.199875 0.000000
						}
					}
				}
				JOINT newVegas:Collar_Back
				{
					OFFSET 0.000000 15.630707 -20.132601
					CHANNELS 3 Xrotation Yrotation Zrotation
					End Site
					{
						OFFSET 0.000000 22.523010 0.000000
					}
				}
				JOINT newVegas:Left_Peck
				{
					OFFSET 17.239599 -5.132599 25.482599
					CHANNELS 3 Xrotation Yrotation Zrotation
					End Site
					{
						OFFSET 0.000000 22.523010 0.000000
					}
				}
				JOINT newVegas:Right_Peck
				{
					OFFSET -17.239599 -5.132202 25.482599
					CHANNELS 3 Xrotation Yrotation Zrotation
					End Site
					{
						OFFSET 0.000000 22.523010 0.000000
					}
				}
				JOINT newVegas:Right_Collar
				{
					OFFSET -18.625099 8.655792 8.828100
					CHANNELS 3 Xrotation Yrotation Zrotation
					JOINT newVegas:Right_Collar1
					{
						OFFSET -14.783401 10.539993 -1.259500
						CHANNELS 3 Xrotation Yrotation Zrotation
						End Site
						{
							OFFSET 0.000000 18.199631 0.000000
						}
					}
				}
			}
		}
		JOINT newVegas:Belly
		{
			OFFSET 0.000000 -6.540398 9.014299
			CHANNELS 3 Xrotation Yrotation Zrotation
			End Site
			{
				OFFSET 0.000000 11.566666 0.000000
			}
		}
	}
	JOINT newVegas:ElvisFacialAnim_Joint
	{
		OFFSET 1.000000 -95.330101 -8.825800
		CHANNELS 3 Xrotation Yrotation Zrotation
		End Site
		{
			OFFSET 0.000000 35.315800 0.000000
		}
	}
}
MOTION
Frames: 4
Frame Time: 0.033333
3.451077 83.676056 5.524949 11.806355 4.904376 8.993682 0.000001 0.000000 -0.000001 -49.591073 2.810454 23.761776 50.843368 8.810714 -4.864281 29.539339 0.380257 -20.288517 -0.000000 -0.000000 -0.000000 -0.000000 0.000002 0.000001 -51.961952 -10.114720 14.985526 56.439533 6.831743 -6.694287 -12.794111 -6.411866 -22.730523 -0.000000 0.000001 0.000000 0.000001 0.000000 0.000002 6.727170 1.146212 -1.093171 5.107791 -0.061342 -2.877382 5.104539 0.004443 -2.887881 1.436964 -3.398957 -1.519516 1.436986 -3.398955 -1.519515 0.000005 -0.000000 -0.000000 1.436991 -3.398956 -1.519515 1.436967 -3.398955 -1.519511 -0.000001 0.000001 0.000000 0.000005 -0.000000 -0.000000 0.384542 -13.732342 -11.926944 -9.350876 -33.441812 -38.456465 0.000019 -75.066982 0.000040 -23.499343 -21.502520 -15.815827 -6.203873 -5.539108 5.151899 9.139587 36.747466 3.151493 0.000002 0.000001 0.000003 2.081461 1.969849 -29.313833 5.134797 5.807208 -82.956459 0.000000 0.000001 -0.000000 1.638563 6.350167 -42.969697 5.134789 5.807202 -82.956466 0.000002 -0.000001 -0.000000 2.877445 7.353011 -58.652829 5.640845 5.847277 -87.937326 0.000000 0.000001 0.000002 3.822340 12.492179 -66.152547 6.139091 5.843971 -92.826676 0.000001 -0.000003 -0.000002 -0.000000 -0.000000 0.000002 -0.000000 -0.000000 0.000002 -0.000000 -0.000001 0.000002 -0.000001 0.000001 0.000001 -0.000000 0.000002 0.000002 -0.000001 0.000001 0.000001 -0.000002 0.000002 0.000001 0.949961 8.719137 1.862982 1.944663 17.731914 59.275250 0.000003 79.210858 -0.000009 27.936408 10.315064 -20.191866 -7.446503 5.931163 4.817119 8.533139 -33.155077 -3.416782 -0.000000 -0.000001 -0.000000 -0.393747 4.277996 66.586005 4.766367 -4.655880 91.345044 -0.000001 0.000001 -0.000000 3.413381 -6.749125 73.844850 4.766360 -4.655873 91.345003 -0.000004 0.000000 -0.000000 3.967082 -6.872614 80.832099 3.806142 -4.578904 79.459689 -0.000002 0.000001 0.000000 5.482994 -6.867377 99.570313 3.806125 -4.578896 79.459682 -0.000002 0.000003 -0.000002 -0.000002 0.000003 -0.000001 0.000000 0.000001 -0.000002 -0.000002 0.000003 -0.000003 0.000000 0.000000 0.000001 0.000000 0.000001 0.000001 0.000000 0.000000 0.000001 0.000000 0.000001 0.000001 -0.000000 -0.000000 -0.000000 -0.000000 -0.000000 -0.000000 -0.000000 -0.000000 -0.000000 -0.000000 -0.000000 -0.000000 -0.000000 -0.000000 -0.000000 -0.000000 -0.000000 -0.000000 -0.000000 -0.000000 -0.000000 0.000000 -0.000000 -0.000000 0.000001 0.000000 -0.000001 
-0.715485 85.428337 0.535820 10.893978 3.715269 9.650636 -0.000001 -0.000000 -0.000000 -39.791453 5.517977 20.899503 49.920364 9.758863 -4.699161 33.115619 1.928454 -22.544959 0.000002 0.000003 -0.000001 -0.000000 -0.000002 -0.000000 -47.525795 -10.379576 18.261508 42.227703 4.951139 -8.250769 -2.131626 -1.756140 -22.807644 -0.000000 0.000000 0.000000 0.000000 0.000002 0.000002 6.275513 -0.710742 -2.006646 4.615167 -0.208600 -3.055571 4.580922 -0.069795 -3.264376 1.566283 -3.464129 -1.631605 1.566253 -3.464128 -1.631603 -0.000002 -0.000000 -0.000000 1.566199 -3.464133 -1.631612 1.566422 -3.464122 -1.631599 0.000000 -0.000000 -0.000000 -0.000002 -0.000000 0.000000 -0.128927 -15.115692 -8.038590 -19.979302 -34.327967 -39.464317 -0.000001 -71.477595 0.000008 -22.894927 -14.269543 -17.292287 -7.445594 -7.187744 1.366244 9.139581 36.747463 3.151496 -0.000000 -0.000001 -0.000006 1.813323 1.349296 -22.612943 4.243853 5.626732 -74.030317 -0.000001 -0.000001 -0.000001 1.218743 5.848490 -36.553239 4.284324 5.638084 -74.442710 -0.000001 -0.000000 -0.000001 2.359776 7.001079 -52.509531 4.816308 5.759137 -79.796574 0.000002 0.000001 0.000001 3.278503 12.223720 -60.225487 5.344931 5.829183 -85.029305 -0.000004 0.000000 -0.000000 -0.000001 -0.000001 0.000003 -0.000001 -0.000001 0.000003 -0.000002 -0.000001 0.000003 -0.000000 -0.000003 -0.000001 0.000000 -0.000003 -0.000001 -0.000000 -0.000003 -0.000001 -0.000001 -0.000002 -0.000001 1.418947 9.312842 -0.704087 6.447112 12.132024 49.017235 -0.000290 87.792800 0.000277 28.191802 5.670610 -26.653314 -7.446507 5.931161 4.817121 8.384326 -31.847485 -3.344917 0.000001 0.000000 -0.000002 -0.919036 5.282485 54.887462 4.044072 -4.616714 82.426935 0.000003 0.000002 0.000004 2.728692 -6.492656 64.833890 4.085855 -4.622049 82.945763 -0.000001 0.000001 0.000001 3.415942 -6.749841 73.877669 3.175817 -4.415770 71.433861 0.000002 -0.000001 -0.000001 5.008608 -6.922121 93.690456 3.201931 -4.424417 71.773185 0.000001 0.000003 -0.000000 -0.000001 0.000000 -0.000001 0.000002 -0.000004 0.000002 -0.000001 -0.000000 -0.000002 0.000000 0.000002 -0.000000 0.000000 0.000003 -0.000001 0.000000 0.000002 -0.000000 0.000000 0.000003 -0.000001 0.000001 -0.000000 -0.000000 0.000001 -0.000000 -0.000000 0.000001 -0.000000 -0.000000 0.000001 -0.000000 -0.000000 0.000001 -0.000000 -0.000000 0.000001 -0.000000 -0.000000 0.000001 -0.000000 -0.000000 0.000001 -0.000000 0.000000 -0.000001 -0.000000 -0.000000 
-4.372134 86.554474 -4.519249 10.737866 3.780153 9.559953 -0.000000 -0.000000 0.000000 -30.737118 5.753671 17.678379 45.073562 10.334167 -4.407806 36.007316 -0.913342 -30.502679 0.000001 -0.000002 0.000002 0.000000 0.000002 0.000002 -50.642455 -9.458337 16.053854 36.852754 5.580148 -6.471644 7.141409 6.853530 -12.976743 0.000000 -0.000001 -0.000001 0.000000 0.000000 -0.000000 5.444659 -2.992391 -2.515678 4.072319 -0.286529 -2.786508 3.991412 -0.217797 -2.960599 2.091909 -3.519727 -1.393923 2.091905 -3.519728 -1.393923 0.000001 -0.000000 0.000000 2.091906 -3.519726 -1.393923 2.091898 -3.519723 -1.393925 -0.000001 -0.000001 -0.000000 0.000001 -0.000000 -0.000000 -0.364500 -14.322889 -2.524998 -27.472725 -31.982108 -38.116062 0.000015 -68.094035 0.000021 -22.779022 -7.210403 -20.553699 -8.793227 -8.935049 -3.016895 9.139580 36.747463 3.151492 -0.000001 0.000000 -0.000001 1.597808 0.609679 -14.934458 3.272329 5.253930 -63.810107 -0.000000 0.000003 -0.000002 0.810856 5.220487 -29.211490 3.354290 5.293285 -64.702054 0.000000 0.000002 -0.000002 1.818016 6.533381 -45.485016 3.899973 5.517234 -70.489772 -0.000002 0.000001 0.000002 2.695794 11.851376 -53.457210 4.450098 5.681412 -76.123674 -0.000000 -0.000003 -0.000001 -0.000000 -0.000001 -0.000001 -0.000000 -0.000001 -0.000001 -0.000001 -0.000001 -0.000001 -0.000000 -0.000003 -0.000001 0.000001 -0.000003 -0.000001 -0.000000 -0.000003 -0.000001 -0.000001 -0.000002 -0.000002 1.767022 9.285547 -3.877745 10.712911 3.841211 39.100876 -0.000386 90.168107 0.000728 26.539912 7.838006 -21.543824 -7.446511 5.931160 4.817119 8.213866 -30.348378 -3.258858 0.000002 0.000000 -0.000007 -1.130047 6.442846 41.433536 3.235661 -4.435378 72.209511 -0.000002 0.000000 0.000001 2.005529 -6.072189 54.518280 3.322585 -4.462251 73.330256 0.000002 0.000001 0.000002 2.808876 -6.529148 65.918695 2.491239 -4.123819 62.258745 0.000001 -0.000001 -0.000002 4.462336 -6.925225 86.963888 2.544479 -4.151309 62.996781 -0.000000 -0.000002 -0.000000 -0.000000 0.000002 -0.000001 -0.000001 0.000003 0.000002 -0.000000 0.000003 -0.000000 0.000002 -0.000003 -0.000003 0.000002 -0.000002 -0.000002 0.000002 -0.000003 -0.000003 0.000002 -0.000002 -0.000000 0.000000 0.000000 -0.000000 0.000000 0.000000 -0.000000 0.000000 0.000000 -0.000000 0.000000 0.000000 -0.000000 0.000000 0.000000 -0.000000 0.000000 0.000000 -0.000000 0.000000 0.000000 -0.000000 -0.000001 -0.000000 -0.000000 -0.000000 -0.000000 0.000000 
-7.864369 86.659027 -8.899780 11.512829 4.211534 8.752764 -0.000001 0.000000 -0.000000 -25.935234 4.152573 14.842681 39.502191 10.407866 -4.201916 37.911628 -4.752635 -33.568935 0.000001 0.000000 0.000001 0.000000 -0.000001 0.000002 -57.091516 -8.961763 13.069218 41.594749 6.597823 -7.379166 2.584615 24.599239 2.402360 -0.000001 -0.000000 -0.000002 0.000001 0.000001 0.000001 4.604321 -2.671906 -1.537515 3.521100 -0.633885 -1.987171 3.478613 -0.626447 -2.077010 2.535228 -3.618119 -1.071691 2.535232 -3.618120 -1.071691 -0.000001 -0.000000 0.000000 2.535160 -3.618122 -1.071692 2.535350 -3.618125 -1.071683 -0.000001 -0.000001 -0.000000 -0.000001 -0.000000 0.000000 0.534259 -13.103545 3.946166 -27.880506 -27.905709 -29.510187 0.000018 -65.336053 0.000016 -23.090703 -4.776162 -19.894248 -10.067494 -10.570537 -7.507995 9.139584 36.747466 3.151495 0.000001 0.000002 0.000001 1.481573 -0.161034 -7.118512 2.360775 4.698948 -53.331189 -0.000000 -0.000000 -0.000001 0.479728 4.527159 -21.685016 2.469240 4.777497 -54.644082 -0.000000 0.000002 0.000001 1.323244 5.984424 -38.233719 3.002209 5.112772 -60.820943 -0.000002 0.000001 0.000003 2.142579 11.395788 -46.432944 3.551664 5.381740 -66.823607 0.000006 0.000000 0.000001 -0.000001 -0.000002 0.000000 -0.000001 -0.000002 0.000000 -0.000002 -0.000001 0.000000 0.000001 0.000001 -0.000000 0.000002 0.000000 0.000001 0.000001 0.000001 -0.000000 0.000001 0.000002 -0.000000 1.800580 7.953363 -7.246843 12.896487 -6.952913 33.316481 0.000115 87.466385 -0.000155 24.061831 11.033590 -14.810592 -7.446504 5.931162 4.817119 8.040202 -28.822097 -3.167323 0.000000 -0.000003 -0.000004 -0.948820 7.509486 27.679266 2.452961 -4.103529 61.725185 -0.000001 0.000000 -0.000002 1.354647 -5.513828 43.941479 2.573286 -4.165840 63.393943 0.000001 0.000000 0.000001 2.220074 -6.215504 57.696411 1.838581 -3.708877 52.724846 0.000001 -0.000001 0.000001 3.897945 -6.861073 79.968791 1.910727 -3.762559 53.832194 -0.000000 0.000002 -0.000001 -0.000001 0.000001 -0.000003 -0.000002 0.000000 0.000001 -0.000001 0.000001 -0.000004 -0.000000 0.000000 -0.000002 -0.000001 0.000001 -0.000001 -0.000000 0.000000 -0.000002 -0.000000 0.000001 -0.000001 0.000002 0.000000 0.000000 0.000002 0.000000 0.000000 0.000002 0.000000 0.000000 0.000002 0.000000 0.000000 0.000002 0.000000 0.000000 0.000002 0.000000 0.000000 0.000002 0.000000 0.000000 -0.000000 0.000000 0.000000 -0.000001 0.000000 -0.000000 
